<?xml version="1.0" encoding="UTF-8"?>
<svg version="1.1" xmlns="http://www.w3.org/2000/svg" width="388" height="388">
<path d="M0 0 C0.80036682 -0.00705963 1.60073364 -0.01411926 2.425354 -0.02139282 C35.55965886 -0.24730671 35.55965886 -0.24730671 50.390625 3.203125 C51.28523437 3.40180176 52.17984375 3.60047852 53.1015625 3.80517578 C86.4627806 11.3487439 115.86542077 26.5122183 141.390625 49.203125 C142.38191406 50.07195313 143.37320312 50.94078125 144.39453125 51.8359375 C149.81750295 56.66127559 154.81642732 61.56963944 159.390625 67.203125 C160.60298828 68.65912109 160.60298828 68.65912109 161.83984375 70.14453125 C187.39478411 101.32573641 205.35381051 142.01400148 205.59375 182.8125 C205.60080963 183.61286682 205.60786926 184.41323364 205.61514282 185.237854 C205.84105671 218.37215886 205.84105671 218.37215886 202.390625 233.203125 C202.19194824 234.09773437 201.99327148 234.99234375 201.78857422 235.9140625 C194.2450061 269.2752806 179.0815317 298.67792077 156.390625 324.203125 C155.52179688 325.19441406 154.65296875 326.18570312 153.7578125 327.20703125 C148.93247441 332.63000295 144.02411056 337.62892732 138.390625 342.203125 C137.41996094 343.01136719 136.44929688 343.81960938 135.44921875 344.65234375 C104.26801359 370.20728411 63.57974852 388.16631051 22.78125 388.40625 C21.98088318 388.41330963 21.18051636 388.42036926 20.355896 388.42764282 C-12.77840886 388.65355671 -12.77840886 388.65355671 -27.609375 385.203125 C-28.50398437 385.00444824 -29.39859375 384.80577148 -30.3203125 384.60107422 C-63.6815306 377.0575061 -93.08417077 361.8940317 -118.609375 339.203125 C-119.60066406 338.33429688 -120.59195313 337.46546875 -121.61328125 336.5703125 C-127.03625295 331.74497441 -132.03517732 326.83661056 -136.609375 321.203125 C-137.41761719 320.23246094 -138.22585937 319.26179688 -139.05859375 318.26171875 C-164.61353411 287.08051359 -182.57256051 246.39224852 -182.8125 205.59375 C-182.81955963 204.79338318 -182.82661926 203.99301636 -182.83389282 203.168396 C-183.05980671 170.03409114 -183.05980671 170.03409114 -179.609375 155.203125 C-179.41069824 154.30851563 -179.21202148 153.41390625 -179.00732422 152.4921875 C-171.4637561 119.1309694 -156.3002817 89.72832923 -133.609375 64.203125 C-132.74054688 63.21183594 -131.87171875 62.22054687 -130.9765625 61.19921875 C-126.15122441 55.77624705 -121.24286056 50.77732268 -115.609375 46.203125 C-114.63871094 45.39488281 -113.66804688 44.58664063 -112.66796875 43.75390625 C-81.48676359 18.19896589 -40.79849852 0.23993949 0 0 Z " fill="#FDFEFD" transform="translate(182.609375,-0.203125)"/>
<path d="M0 0 C0 0.66 0 1.32 0 2 C1.14855469 2.24234375 2.29710938 2.4846875 3.48046875 2.734375 C8.16599241 3.90910493 12.10827498 5.91550042 16.3125 8.25 C17.42987549 8.85714844 17.42987549 8.85714844 18.56982422 9.4765625 C20.0503678 10.28209108 21.52895544 11.09122714 23.00537109 11.90429688 C24.66986624 12.81864868 26.3436142 13.71613072 28.01953125 14.609375 C42.47769515 22.32617612 55.92304483 31.13660315 69 41 C71.6653025 39.73216075 74.03226541 38.35220656 76.40625 36.6015625 C77.0573877 36.1281543 77.70852539 35.65474609 78.37939453 35.16699219 C79.42909424 34.40370605 79.42909424 34.40370605 80.5 33.625 C89.99574008 26.8284411 99.88505751 20.82336028 110 15 C110.62487305 14.63455078 111.24974609 14.26910156 111.89355469 13.89257812 C134.96380318 0.48177079 170.40083731 -18.52712623 197.98779297 -11.49316406 C210.57865334 -7.54370974 218.20858868 0.05364662 225 11 C225.67869141 12.051875 225.67869141 12.051875 226.37109375 13.125 C231.38035309 21.86389479 232.96822603 32.23985245 235 42 C235.26514404 43.24354248 235.26514404 43.24354248 235.53564453 44.51220703 C236.89072085 51.31327729 237.30696259 57.82947757 237.30078125 64.75390625 C237.30506638 65.8530687 237.3093515 66.95223114 237.31376648 68.08470154 C237.31947863 70.40501218 237.3200332 72.72534072 237.31567383 75.0456543 C237.31255507 78.5014731 237.33586942 81.95639862 237.36132812 85.41210938 C237.39601743 97.01915071 236.98688 108.48336756 235.73046875 120.02734375 C235.56832634 121.58999718 235.56832634 121.58999718 235.40290833 123.18421936 C234.65232141 129.35764305 233.2196431 134.81150953 230.92402649 140.59352112 C230.06906108 142.82014149 229.44069684 144.99861686 228.875 147.3125 C226.45283704 154.81031906 220.03975597 164.00282095 214 169 C213.34 169 212.68 169 212 169 C212 169.66 212 170.32 212 171 C209.94072044 171.98592155 207.87743312 172.96347494 205.8125 173.9375 C204.66394531 174.48277344 203.51539063 175.02804687 202.33203125 175.58984375 C185.33978484 182.7811696 166.20863549 176.23741923 150 170 C148.845 169.56300781 147.69 169.12601563 146.5 168.67578125 C137.02995515 164.98711423 127.99313334 160.72783016 119 156 C118.23558594 155.60184082 117.47117188 155.20368164 116.68359375 154.79345703 C86.67977625 139.07804287 86.67977625 139.07804287 74.7109375 128.0234375 C72.23092488 125.77125127 72.23092488 125.77125127 69.51171875 125.9140625 C66.26843727 127.31628995 63.59885679 129.24164513 60.8125 131.375 C53.20320771 137.0000608 45.24065374 141.91990042 37.10742188 146.74658203 C35.23598581 147.85964421 33.37497214 148.98802019 31.515625 150.12109375 C14.67647346 160.13192905 -4.14623889 168.61321111 -23 174 C-24.31560046 174.51295129 -25.62802221 175.03411422 -26.9375 175.5625 C-38.46095347 179.90022583 -53.66189596 179.69899445 -65 175 C-76.28191643 169.25781741 -85.61344891 157.99007995 -89.67285156 146.01513672 C-90.65906592 142.68373276 -91.48471564 139.34167681 -92.2734375 135.95703125 C-92.69738604 133.12996066 -92.69738604 133.12996066 -94 132 C-103.4888466 96.67597441 -102.58749527 43.51389077 -85.11328125 10.859375 C-78.92340895 0.52120231 -71.05941677 -7.19906851 -59.5078125 -11.15234375 C-39.60901813 -15.96084974 -18.50338748 -6.42092547 0 0 Z " fill="#FDFEFE" transform="translate(124,112)"/>
<path d="M0 0 C1.3137561 -0.0151062 1.3137561 -0.0151062 2.65405273 -0.03051758 C12.56078404 0.10265519 19.99713456 3.46108701 27.0625 10.4375 C43.59956945 31.69479597 44.59623335 59.97621275 44.45361328 85.73193359 C44.4374511 89.19798722 44.45360413 92.66288639 44.47265625 96.12890625 C44.49619789 120.46672903 41.75633862 149.00702718 24.140625 167.59765625 C21.06410309 170.32141907 17.90174577 172.02880336 14.0625 173.4375 C13.14984375 173.78941406 12.2371875 174.14132812 11.296875 174.50390625 C-4.61704108 179.09741584 -21.52095708 172.91035098 -35.95458984 166.32128906 C-38.26131833 165.29317319 -40.60057923 164.47261932 -43 163.6875 C-54.48144977 159.59733416 -65.34913124 153.41404592 -75.9375 147.4375 C-77.38189453 146.62345703 -77.38189453 146.62345703 -78.85546875 145.79296875 C-89.8636863 139.48424899 -100.17941645 132.55484384 -109.9375 124.4375 C-108.47790103 121.11410543 -106.60428037 118.8232168 -104.125 116.1875 C-96.6740873 107.90122277 -91.03233953 98.3205331 -90.4375 86.875 C-91.22130697 72.8676109 -100.85061699 62.20884952 -109.9375 52.4375 C-108.85326236 49.18478709 -108.42053016 48.78336755 -105.75390625 46.90625 C-105.08278809 46.4309082 -104.41166992 45.95556641 -103.72021484 45.46582031 C-102.98754395 44.96147461 -102.25487305 44.45712891 -101.5 43.9375 C-100.74154785 43.40995117 -99.9830957 42.88240234 -99.20166016 42.33886719 C-80.52322563 29.4876132 -61.1729534 19.09829085 -40.25927734 10.41113281 C-38.31560963 9.59605954 -36.38462862 8.75082062 -34.45703125 7.8984375 C-23.08377924 2.89482056 -12.40552899 0.09231112 0 0 Z " fill="#FDFEFE" transform="translate(309.9375,107.5625)"/>
<path d="M0 0 C0 0.66 0 1.32 0 2 C1.14855469 2.24234375 2.29710938 2.4846875 3.48046875 2.734375 C8.16599241 3.90910493 12.10827498 5.91550042 16.3125 8.25 C17.42987549 8.85714844 17.42987549 8.85714844 18.56982422 9.4765625 C20.0503678 10.28209108 21.52895544 11.09122714 23.00537109 11.90429688 C24.66986624 12.81864868 26.3436142 13.71613072 28.01953125 14.609375 C42.47769515 22.32617612 55.92304483 31.13660315 69 41 C71.6653025 39.73216075 74.03226541 38.35220656 76.40625 36.6015625 C77.0573877 36.1281543 77.70852539 35.65474609 78.37939453 35.16699219 C79.42909424 34.40370605 79.42909424 34.40370605 80.5 33.625 C89.99574008 26.8284411 99.88505751 20.82336028 110 15 C110.62487305 14.63455078 111.24974609 14.26910156 111.89355469 13.89257812 C134.96380318 0.48177079 170.40083731 -18.52712623 197.98779297 -11.49316406 C210.57865334 -7.54370974 218.20858868 0.05364662 225 11 C225.67869141 12.051875 225.67869141 12.051875 226.37109375 13.125 C231.38035309 21.86389479 232.96822603 32.23985245 235 42 C235.26514404 43.24354248 235.26514404 43.24354248 235.53564453 44.51220703 C236.89072085 51.31327729 237.30696259 57.82947757 237.30078125 64.75390625 C237.30506638 65.8530687 237.3093515 66.95223114 237.31376648 68.08470154 C237.31947863 70.40501218 237.3200332 72.72534072 237.31567383 75.0456543 C237.31255507 78.5014731 237.33586942 81.95639862 237.36132812 85.41210938 C237.39601743 97.01915071 236.98688 108.48336756 235.73046875 120.02734375 C235.56832634 121.58999718 235.56832634 121.58999718 235.40290833 123.18421936 C234.65232141 129.35764305 233.2196431 134.81150953 230.92402649 140.59352112 C230.06906108 142.82014149 229.44069684 144.99861686 228.875 147.3125 C226.45283704 154.81031906 220.03975597 164.00282095 214 169 C213.34 169 212.68 169 212 169 C212 169.66 212 170.32 212 171 C209.94072044 171.98592155 207.87743312 172.96347494 205.8125 173.9375 C204.66394531 174.48277344 203.51539063 175.02804687 202.33203125 175.58984375 C185.33978484 182.7811696 166.20863549 176.23741923 150 170 C148.845 169.56300781 147.69 169.12601563 146.5 168.67578125 C137.02995515 164.98711423 127.99313334 160.72783016 119 156 C118.23558594 155.60184082 117.47117188 155.20368164 116.68359375 154.79345703 C86.67977625 139.07804287 86.67977625 139.07804287 74.7109375 128.0234375 C72.23092488 125.77125127 72.23092488 125.77125127 69.51171875 125.9140625 C66.26843727 127.31628995 63.59885679 129.24164513 60.8125 131.375 C53.20320771 137.0000608 45.24065374 141.91990042 37.10742188 146.74658203 C35.23598581 147.85964421 33.37497214 148.98802019 31.515625 150.12109375 C14.67647346 160.13192905 -4.14623889 168.61321111 -23 174 C-24.31560046 174.51295129 -25.62802221 175.03411422 -26.9375 175.5625 C-38.46095347 179.90022583 -53.66189596 179.69899445 -65 175 C-76.28191643 169.25781741 -85.61344891 157.99007995 -89.67285156 146.01513672 C-90.65906592 142.68373276 -91.48471564 139.34167681 -92.2734375 135.95703125 C-92.69738604 133.12996066 -92.69738604 133.12996066 -94 132 C-103.4888466 96.67597441 -102.58749527 43.51389077 -85.11328125 10.859375 C-78.92340895 0.52120231 -71.05941677 -7.19906851 -59.5078125 -11.15234375 C-39.60901813 -15.96084974 -18.50338748 -6.42092547 0 0 Z M-74 7 C-90.55111579 28.06505646 -90.19101402 57.37588223 -90.24023438 82.77563477 C-90.24994908 85.79666598 -90.28108115 88.81701767 -90.3125 91.83789062 C-90.37624163 103.58763736 -89.50031273 114.52324606 -87 126 C-86.69052013 127.64021363 -86.38276293 129.28075517 -86.078125 130.921875 C-83.04557014 144.94028897 -77.24771837 159.19232843 -64.7890625 167.46875 C-52.23990767 173.99990865 -37.87272528 171.46850612 -24.90625 167.6015625 C-4.76917706 161.1964983 15.55355917 152.28188498 33.28125 140.75390625 C35.25904709 139.4779998 37.28520456 138.27613186 39.3359375 137.12109375 C43.42553855 134.80911934 47.26733529 132.17630047 51.125 129.5 C51.81464844 129.02691406 52.50429687 128.55382812 53.21484375 128.06640625 C56.9253629 125.50522573 60.51900183 122.87148487 64 120 C62.53594289 116.67396257 60.65384804 114.34247887 58.1875 111.6875 C50.09204825 102.66978159 43.99038045 93.21208766 44.62109375 80.49609375 C46.63625757 67.22094238 55.14742691 57.51939028 64 48 C62.57219385 43.71658154 59.36099054 42.2136311 55.75 39.8125 C55.02635254 39.32418701 54.30270508 38.83587402 53.55712891 38.33276367 C47.14754539 34.03598967 40.63820235 29.93585347 34 26 C32.90429688 25.34386719 31.80859375 24.68773437 30.6796875 24.01171875 C22.34391348 19.1222841 13.77596546 14.95233492 4.98999023 10.93725586 C3.00150921 10.00071082 1.05616716 9.000811 -0.89453125 7.98828125 C-7.85686177 4.48159425 -15.35789094 2.22445302 -22.73730469 -0.23535156 C-24.50458205 -0.83257995 -26.25908064 -1.46765852 -28.0078125 -2.1171875 C-34.1537151 -4.19217069 -40.25671712 -4.30030709 -46.6875 -4.375 C-47.57945068 -4.38909912 -48.47140137 -4.40319824 -49.39038086 -4.41772461 C-60.09831273 -4.33893848 -66.68963497 -0.77340158 -74 7 Z M151.19921875 3.6015625 C148.8572233 4.62529189 146.52305712 5.59349631 144.14453125 6.5234375 C119.61966894 16.16677881 96.67780964 29.71189297 76 46 C77.43417039 49.26146363 79.22345262 51.44397442 81.6875 54 C89.31650647 62.42108911 95.72527873 72.66172814 95.3671875 84.359375 C93.44475811 98.1845055 85.75043118 108.5070626 76 118 C77.53677352 122.42467008 81.0268713 124.58079334 84.6875 127.1875 C85.68366333 127.90715942 85.68366333 127.90715942 86.69995117 128.64135742 C92.47896831 132.75464585 98.46135412 136.45700387 104.59375 140.015625 C107.38031835 141.6389928 110.0936959 143.33065903 112.8125 145.0625 C118.79139647 148.66993501 125.23337915 151.31006146 131.6328125 154.0703125 C134.53490865 155.3267411 137.36233594 156.66960558 140.17578125 158.11328125 C143.39854977 159.749358 146.60426087 160.9873274 150.0625 162.0625 C153.27269252 163.08992152 156.29111564 164.12938473 159.375 165.5 C171.9407423 170.6996175 186.44167237 174.26947152 199.6875 169.25 C201.14600915 168.54172229 202.58735103 167.79581979 204 167 C205.0725 166.401875 206.145 165.80375 207.25 165.1875 C222.14365757 153.34027239 227.26030623 131.75234311 229.72341919 113.6602478 C230.60055029 105.22370414 230.43767927 96.69847833 230.39111328 88.22705078 C230.37509014 84.76945145 230.39101029 81.31303189 230.41015625 77.85546875 C230.43399146 53.24105164 229.25609993 23.71023743 211.5625 4.49609375 C202.29787715 -4.37478263 192.64655966 -4.54061369 180.37890625 -4.31640625 C170.02647852 -3.88072563 160.62615484 -0.55182723 151.19921875 3.6015625 Z " fill="#4DDCA2" transform="translate(124,112)"/>
<path d="M0 0 C2.4963599 1.98512279 4.69136268 4.02394574 6.79296875 6.42578125 C7.49421875 7.18890625 8.19546875 7.95203125 8.91796875 8.73828125 C13.20979453 14.8898982 14.3306336 20.91441706 14.23046875 28.23828125 C14.22217041 29.02509277 14.21387207 29.8119043 14.20532227 30.62255859 C13.93335015 40.04769898 11.49400645 47.81045291 4.83203125 54.69921875 C-1.27872615 59.87346161 -7.44452597 62.25624474 -15.46875 61.84765625 C-23.74748686 60.57218752 -30.52480984 56.96659756 -35.83203125 50.421875 C-42.90482878 40.64577265 -42.9975243 30.11291698 -42.20703125 18.42578125 C-40.3977151 9.64333425 -34.5389877 2.38201997 -27.20703125 -2.57421875 C-18.47363985 -5.13937446 -7.67421005 -5.11134065 0 0 Z " fill="#42CCA7" transform="translate(90.20703125,163.57421875)"/>
<path d="M0 0 C6.82320368 4.11298904 10.76905769 10.44002235 13 18 C14.56130304 29.43276745 13.99760504 41.16351873 7.6796875 51.0703125 C3.5658712 56.44300155 -1.70223327 58.90074442 -8 61 C-16.43204755 61.89839167 -23.04400139 61.01206634 -30 56 C-36.1630031 50.58338136 -39.52255362 44.75426719 -42 37 C-42.495 35.515 -42.495 35.515 -43 34 C-43.95943374 23.21030258 -42.76415899 12.10488182 -35.75 3.4375 C-25.90329699 -6.36774321 -11.95857218 -6.82733564 0 0 Z " fill="#43CCA8" transform="translate(283,157)"/>
<path d="M0 0 C0.99 0.33 1.98 0.66 3 1 C2.34 1.99 1.68 2.98 1 4 C2.32 4.66 3.64 5.32 5 6 C3.94425781 6.69222656 3.94425781 6.69222656 2.8671875 7.3984375 C-5.22810335 12.7459795 -13.13446093 18.32191854 -21 24 C-19.56582961 27.26146363 -17.77654738 29.44397442 -15.3125 32 C-7.20413248 40.95021989 -1.82100258 50.6938875 -1.734375 62.88671875 C-2.03465412 65.27570409 -2.81629663 66.91912462 -4 69 C-4.66 67.35 -5.32 65.7 -6 64 C-9.05650805 66.80833005 -10.91201447 69.41659391 -12.75 73.125 C-16.47572907 80.19724908 -21.24730466 86.44321689 -27 92 C-28.423125 91.505 -28.423125 91.505 -29.875 91 C-32.77062452 89.89840809 -32.77062452 89.89840809 -35 90 C-35 90.99 -35 91.98 -35 93 C-34.34 93 -33.68 93 -33 93 C-33 94.65 -33 96.3 -33 98 C-37.25268139 93.87618774 -41.19051011 89.53635808 -45 85 C-45.46792969 84.45601563 -45.93585938 83.91203125 -46.41796875 83.3515625 C-51.89368147 76.4437403 -54.8153191 67.29473997 -54.37890625 58.49609375 C-52.48218177 46.00117681 -44.92310341 36.75889546 -36.50390625 27.8125 C-34.78714948 26.13600427 -34.78714948 26.13600427 -35 24 C-37.44572399 22.16345634 -39.89449417 20.44223737 -42.4375 18.75 C-43.52998047 18.01172974 -43.52998047 18.01172974 -44.64453125 17.25854492 C-46.75853525 15.83220348 -48.87835821 14.41494672 -51 13 C-52.01191406 12.32066406 -53.02382812 11.64132813 -54.06640625 10.94140625 C-56.03975683 9.62056004 -58.01662412 8.30572245 -60 7 C-57.50907189 5.75453595 -56.58919267 6.2232422 -54 7 C-54 5.35 -54 3.7 -54 2 C-47.27627453 6.16168694 -40.80585369 10.51614996 -34.5078125 15.30078125 C-31.00149579 17.72746052 -31.00149579 17.72746052 -27 19 C-24.71811481 17.65346803 -23.02819557 16.40831603 -21.0625 14.6875 C-19.92425647 13.75330624 -18.7821928 12.82375124 -17.63671875 11.8984375 C-17.04552246 11.41858398 -16.45432617 10.93873047 -15.84521484 10.44433594 C-12.80064564 8.06120927 -9.61318927 5.92159219 -6.375 3.8125 C-5.78340088 3.41442139 -5.19180176 3.01634277 -4.58227539 2.60620117 C-2.8984375 1.51953125 -2.8984375 1.51953125 0 0 Z " fill="#49BBB8" transform="translate(222,134)"/>
<path d="M0 0 C0 0.66 0 1.32 0 2 C1.14855469 2.24234375 2.29710938 2.4846875 3.48046875 2.734375 C8.16600858 3.90910898 12.10822897 5.91552955 16.3125 8.25 C17.05234131 8.65186523 17.79218262 9.05373047 18.55444336 9.46777344 C20.02989123 10.27031427 21.50334512 11.07653377 22.97460938 11.88671875 C24.73198829 12.85268402 26.49806589 13.80279129 28.265625 14.75 C30.8590682 16.14089691 33.43130934 17.56405981 36 19 C37.21042969 19.64388672 37.21042969 19.64388672 38.4453125 20.30078125 C40.45498275 21.43165841 42.27351014 22.47179049 44 24 C44.5 26.8125 44.5 26.8125 44 29 C37.78256519 28.5671841 33.82122797 27.19056419 28.5625 23.9375 C20.90810413 19.41204783 13.04184754 15.60877684 4.95776367 11.92114258 C2.98243841 10.99173714 1.05073418 9.99782359 -0.88671875 8.9921875 C-7.85188326 5.48411672 -15.35488602 3.22545466 -22.73730469 0.76464844 C-24.50458205 0.16742005 -26.25908064 -0.46765852 -28.0078125 -1.1171875 C-34.1537151 -3.19217069 -40.25671712 -3.30030709 -46.6875 -3.375 C-47.57945068 -3.38909912 -48.47140137 -3.40319824 -49.39038086 -3.41772461 C-58.25444967 -3.35250514 -64.64718126 -1.06018101 -71.1875 5.05859375 C-89.93160386 25.1357912 -89.19065406 57.19012732 -89.24023438 82.77563477 C-89.24994908 85.79666598 -89.28108115 88.81701767 -89.3125 91.83789062 C-89.37624163 103.58763736 -88.50031273 114.52324606 -86 126 C-85.69052013 127.64021363 -85.38276293 129.28075517 -85.078125 130.921875 C-82.18610052 144.29066739 -76.84349038 158.56318206 -64.85546875 166.40234375 C-52.28866234 172.95386991 -37.99907606 170.48519349 -24.97265625 166.63671875 C-17.16099608 164.15764385 -9.61554455 161.00233139 -2.06396484 157.83447266 C0.5851242 156.76343098 3.27451589 155.85582834 6 155 C5.67 156.65 5.34 158.3 5 160 C6.65 160 8.3 160 10 160 C3.733676 165.22193667 -3.6719846 167.68709382 -11.36328125 170.0703125 C-14.17901829 170.94135075 -14.17901829 170.94135075 -17 173 C-19.19418013 173.57756127 -21.40529747 174.0924743 -23.625 174.5625 C-27.62999584 175.11685769 -27.62999584 175.11685769 -31 177 C-44.04285274 179.34771349 -58.11716526 179.47094635 -69.6875 172.375 C-82.11818219 163.33450386 -88.85855085 150.61134919 -92.2734375 135.95703125 C-92.69738604 133.12996066 -92.69738604 133.12996066 -94 132 C-103.4888466 96.67597441 -102.58749527 43.51389077 -85.11328125 10.859375 C-78.92340895 0.52120231 -71.05941677 -7.19906851 -59.5078125 -11.15234375 C-39.60901813 -15.96084974 -18.50338748 -6.42092547 0 0 Z " fill="#50DBA5" transform="translate(124,112)"/>
<path d="M0 0 C2.42540943 3.63811414 2.5483974 4.69116326 2 9 C-1.48875885 18.39530872 -7.89939394 26.07335088 -15 33 C-13.68686155 36.0338442 -12.49886427 37.67073619 -9.76171875 39.515625 C-9.11203125 39.95865967 -8.46234375 40.40169434 -7.79296875 40.8581543 C-6.75076172 41.54711792 -6.75076172 41.54711792 -5.6875 42.25 C-4.97851562 42.72800049 -4.26953125 43.20600098 -3.5390625 43.69848633 C2.86161489 47.98301848 9.38878527 52.04911997 16 56 C15.505 57.175625 15.505 57.175625 15 58.375 C13.88133489 60.84332497 13.88133489 60.84332497 14 63 C9.42123165 61.38552099 5.52170834 59.01106391 1.4375 56.4375 C0.73584717 55.99929932 0.03419434 55.56109863 -0.6887207 55.10961914 C-6.20720474 51.61531128 -11.35862167 47.81180236 -16.44921875 43.71484375 C-19.17413482 41.88293234 -20.71478769 41.03094392 -24 41 C-26.58232201 42.44219997 -26.58232201 42.44219997 -29.125 44.6875 C-44.23675068 56.77303318 -67.21677644 74.3163214 -87 76 C-87 72 -87 72 -86 69 C-83.43038893 67.65244815 -80.90637163 66.46209424 -78.25 65.3125 C-71.45859859 62.25629789 -65.20336963 58.88651313 -58.9296875 54.859375 C-56.87045585 53.55244932 -54.77046092 52.30865265 -52.64453125 51.11328125 C-48.53642138 48.78978661 -44.68424277 46.13136046 -40.8125 43.4375 C-40.11447266 42.95603516 -39.41644531 42.47457031 -38.69726562 41.97851562 C-35.96426906 40.08804131 -33.25951261 38.20203378 -30.63671875 36.16015625 C-29 35 -29 35 -27 35 C-27 33.35 -27 31.7 -27 30 C-27.66 30 -28.32 30 -29 30 C-29 29.01 -29 28.02 -29 27 C-26.42143135 26.07908262 -25.4056713 25.81493098 -22.859375 26.9765625 C-22.24578125 27.31429687 -21.6321875 27.65203125 -21 28 C-15.01934918 21.75354248 -10.19087769 15.55627948 -6 8 C-4.22024067 4.94006291 -2.63390192 2.38305412 0 0 Z " fill="#47BFB4" transform="translate(216,197)"/>
<path d="M0 0 C7.65183966 3.23797224 13.30145485 11.7825961 17 19 C19.77394713 25.86882146 20.54006026 33.84410208 17.9375 40.8671875 C13.86438437 48.68137129 8.33800371 55.87784162 2 62 C-6.25817197 58.48705825 -11.18790241 49.72762418 -15 42 C-15.36609375 41.3915625 -15.7321875 40.783125 -16.109375 40.15625 C-18.44478126 34.50210853 -17.87107672 26.82910568 -16.1015625 21.08203125 C-15.15967239 18.9811487 -14.17319253 16.9797624 -13 15 C-12.34 15 -11.68 15 -11 15 C-11 24.57 -11 34.14 -11 44 C-2.585 43.505 -2.585 43.505 6 43 C2.04 42.34 -1.92 41.68 -6 41 C-6 37.37 -6 33.74 -6 30 C-4.411875 29.855625 -2.82375 29.71125 -1.1875 29.5625 C1.78896626 29.29191216 4.14917204 28.95027599 7 28 C7 27.01 7 26.02 7 25 C2.71 25 -1.58 25 -6 25 C-6 22.03 -6 19.06 -6 16 C-4.22950311 15.94589313 -2.45853151 15.90715881 -0.6875 15.875 C0.29863281 15.85179687 1.28476563 15.82859375 2.30078125 15.8046875 C5 16 5 16 8 18 C8.1875 21.625 8.1875 21.625 8 25 C8.99 24.67 9.98 24.34 11 24 C12.42041821 21.15916359 12.31452272 19.14522722 12 16 C10.55010053 13.68762074 10.55010053 13.68762074 8 12 C5.13403741 11.55111429 2.6184889 11.30574802 -0.25 11.25 C-0.99507812 11.22035156 -1.74015625 11.19070312 -2.5078125 11.16015625 C-4.33796672 11.0897657 -6.16898769 11.04258168 -8 11 C-6.23381483 5.96722964 -3.84644778 3.59559249 0 0 Z " fill="#F4FAFB" transform="translate(193,164)"/>
<path d="M0 0 C1.65234375 1.16796875 1.65234375 1.16796875 2.65234375 4.16796875 C3.31234375 4.16796875 3.97234375 4.16796875 4.65234375 4.16796875 C4.65234375 4.82796875 4.65234375 5.48796875 4.65234375 6.16796875 C3.04913401 6.36348213 1.44471389 6.54908858 -0.16015625 6.73046875 C-1.05347656 6.83488281 -1.94679688 6.93929687 -2.8671875 7.046875 C-5.34765625 7.16796875 -5.34765625 7.16796875 -8.34765625 6.16796875 C-24.45503802 4.76370567 -38.35860947 7.25331863 -53.1484375 13.76953125 C-55.49043295 14.79326064 -57.82459913 15.76146506 -60.203125 16.69140625 C-69.77526952 20.4582537 -78.85557563 24.8591035 -87.91015625 29.73828125 C-88.6371875 30.12918945 -89.36421875 30.52009766 -90.11328125 30.92285156 C-91.68527237 31.79885186 -93.23602365 32.71352663 -94.76953125 33.65527344 C-95.5584375 34.13125977 -96.34734375 34.60724609 -97.16015625 35.09765625 C-97.86785156 35.54093262 -98.57554687 35.98420898 -99.3046875 36.44091797 C-101.34765625 37.16796875 -101.34765625 37.16796875 -103.609375 36.29736328 C-104.18300781 35.92466309 -104.75664062 35.55196289 -105.34765625 35.16796875 C-104.8954918 31.80185565 -104.10335575 29.75306279 -101.38378906 27.64746094 C-98.62669388 26.00528027 -95.82837074 24.50726416 -92.97265625 23.04296875 C-91.90845459 22.48528809 -90.84425293 21.92760742 -89.74780273 21.35302734 C-25.85164894 -11.5338126 -25.85164894 -11.5338126 0 0 Z " fill="#4ED1AB" transform="translate(328.34765625,102.83203125)"/>
<path d="M0 0 C0.66 0 1.32 0 2 0 C2 9.57 2 19.14 2 29 C10.415 28.505 10.415 28.505 19 28 C13.06 27.01 13.06 27.01 7 26 C7 22.37 7 18.74 7 15 C8.588125 14.855625 10.17625 14.71125 11.8125 14.5625 C14.78896626 14.29191216 17.14917204 13.95027599 20 13 C20 12.01 20 11.02 20 10 C15.71 10 11.42 10 7 10 C7 7.03 7 4.06 7 1 C8.77049689 0.94589313 10.54146849 0.90715881 12.3125 0.875 C13.29863281 0.85179687 14.28476563 0.82859375 15.30078125 0.8046875 C18 1 18 1 21 3 C21.1875 6.625 21.1875 6.625 21 10 C21.66 10.33 22.32 10.66 23 11 C22.34 11 21.68 11 21 11 C21 11.66 21 12.32 21 13 C22.2065625 13.433125 22.2065625 13.433125 23.4375 13.875 C26 15 26 15 27 17 C27.58394161 24.24087591 27.58394161 24.24087591 25.125 27.4375 C21.97399915 29.75441239 20.28862289 30.12207989 16.4296875 30.09765625 C15.62257324 30.09515869 14.81545898 30.09266113 13.98388672 30.09008789 C12.9579541 30.08098389 11.93202148 30.07187988 10.875 30.0625 C5.986875 30.0315625 5.986875 30.0315625 1 30 C0.67 20.1 0.34 10.2 0 0 Z " fill="#75BAE6" transform="translate(180,179)"/>
<path d="M0 0 C0.75539062 0.0103125 1.51078125 0.020625 2.2890625 0.03125 C6.48936272 0.22217274 8.21875756 0.55675041 11.63671875 3.234375 C13.625 5.875 13.625 5.875 14.0625 9 C13.625 11.875 13.625 11.875 11.625 14.875 C10.635 14.875 9.645 14.875 8.625 14.875 C8.625 12.565 8.625 10.255 8.625 7.875 C5.61721479 6.87240493 3.08679353 6.57185358 -0.0625 6.3125 C-1.05636719 6.22871094 -2.05023438 6.14492187 -3.07421875 6.05859375 C-4.21310547 5.96771484 -4.21310547 5.96771484 -5.375 5.875 C-5.375 8.845 -5.375 11.815 -5.375 14.875 C-1.085 14.875 3.205 14.875 7.625 14.875 C7.625 15.865 7.625 16.855 7.625 17.875 C3.24001596 20.79832269 -0.1524672 20.0106502 -5.375 19.875 C-5.375 23.505 -5.375 27.135 -5.375 30.875 C-3.9725 30.83375 -2.57 30.7925 -1.125 30.75 C2.40420727 30.64619979 4.56253253 31.09090198 7.625 32.875 C7.625 33.205 7.625 33.535 7.625 33.875 C1.685 33.875 -4.255 33.875 -10.375 33.875 C-10.705 22.985 -11.035 12.095 -11.375 0.875 C-7.52201512 -0.40932829 -3.9972816 -0.17555629 0 0 Z " fill="#44BDE0" transform="translate(192.375,174.125)"/>
<path d="M0 0 C3.90727193 0.9431346 5.7675406 2.10158352 8.625 4.875 C10.35179003 8.32858006 9.98743011 12.09173834 9.625 15.875 C8.07228802 19.94162662 7.26220598 21.45019602 3.625 23.875 C0.30048588 24.37681345 -2.13568329 24.53795326 -5.1640625 22.91796875 C-7.9721978 20.60890963 -9.20675998 18.81824731 -9.8515625 15.203125 C-10.0036646 10.08696355 -9.87035368 5.88818385 -6.375 1.875 C-3.375 -0.125 -3.375 -0.125 0 0 Z " fill="#F4FBF9" transform="translate(268.375,173.125)"/>
<path d="M0 0 C0 0.66 0 1.32 0 2 C0.61875 2.28875 1.2375 2.5775 1.875 2.875 C4 4 4 4 6 6 C6.69160129 11.44434966 6.94223965 16.3981926 4.125 21.1875 C1.60731413 23.33493795 0.47796811 23.93627092 -2.8125 24.375 C-7.05987456 23.87530888 -8.30459622 22.21951007 -11 19 C-13.83740041 14.74389938 -13.87463054 10.99236019 -13 6 C-9.94893818 0.47334353 -6.21511925 -0.74581431 0 0 Z " fill="#F4FBF9" transform="translate(79,180)"/>
<path d="M0 0 C3.77706983 3.77706983 4.14863163 7.90855456 4.1875 13.0625 C4.20167969 13.91972656 4.21585938 14.77695313 4.23046875 15.66015625 C4 18 4 18 2 21 C0.68 20.67 -0.64 20.34 -2 20 C-2 19.01 -2 18.02 -2 17 C-3.32 17 -4.64 17 -6 17 C-6.66 18.32 -7.32 19.64 -8 21 C-9.32 20.67 -10.64 20.34 -12 20 C-12.68877551 6.03316327 -12.68877551 6.03316327 -10.125 2.1875 C-6.62836053 -1.41198181 -4.78995251 -1.27080373 0 0 Z " fill="#45CDA9" transform="translate(140,184)"/>
<path d="M0 0 C2.625 0.375 2.625 0.375 5 1 C5 1.99 5 2.98 5 4 C5.66 4 6.32 4 7 4 C7 3.34 7 2.68 7 2 C10.465 1.505 10.465 1.505 14 1 C13.44894091 4.9492568 12.61064629 8.34920174 11 12 C11.66 12.7425 12.32 13.485 13 14.25 C15 17 15 17 15 21 C12.8125 21.3125 12.8125 21.3125 10 21 C7.1875 18.5 7.1875 18.5 5 16 C5 17.65 5 19.3 5 21 C3.68 21.33 2.36 21.66 1 22 C-2.05741756 18.91838125 -2.36525695 16.32530251 -2.36132812 12.05859375 C-2.34521484 11.33800781 -2.32910156 10.61742187 -2.3125 9.875 C-2.31572266 9.14667969 -2.31894531 8.41835937 -2.32226562 7.66796875 C-2.26736111 2.26736111 -2.26736111 2.26736111 0 0 Z " fill="#4ACFAA" transform="translate(302,182)"/>
<path d="M0 0 C1.67542976 0.28604898 3.34385343 0.61781233 5 1 C5 1.99 5 2.98 5 4 C5.721875 3.319375 6.44375 2.63875 7.1875 1.9375 C10 0 10 0 12.8125 0.25 C13.8953125 0.62125 13.8953125 0.62125 15 1 C14.46930939 4.82097239 13.50298434 7.06171403 11 10 C12.00185405 12.23490519 12.8111673 13.82569289 14.625 15.5 C16 17 16 17 16 21 C13.33644766 21.39169887 11.60775627 21.40564529 9.33203125 19.88671875 C7.8489112 18.63610683 6.42045648 17.32135486 5 16 C5 17.65 5 19.3 5 21 C3.125 21.625 3.125 21.625 1 22 C-1 20 -1 20 -1.24291992 18.04467773 C-1.23881104 17.26552002 -1.23470215 16.4863623 -1.23046875 15.68359375 C-1.22853516 14.83732422 -1.22660156 13.99105469 -1.22460938 13.11914062 C-1.21236328 12.23419922 -1.20011719 11.34925781 -1.1875 10.4375 C-1.18685547 9.54869141 -1.18621094 8.65988281 -1.18554688 7.74414062 C-1.14021097 1.14021097 -1.14021097 1.14021097 0 0 Z " fill="#46CFA8" transform="translate(110,183)"/>
<path d="M0 0 C3.125 0.375 3.125 0.375 5.4375 2.1875 C8.31468259 5.91718114 8.23655221 9.0006448 8.1875 13.5625 C8.17847656 14.64917969 8.16945313 15.73585937 8.16015625 16.85546875 C8.14855469 17.68691406 8.13695312 18.51835937 8.125 19.375 C6.475 19.705 4.825 20.035 3.125 20.375 C2.795 19.385 2.465 18.395 2.125 17.375 C0.805 17.375 -0.515 17.375 -1.875 17.375 C-2.205 18.365 -2.535 19.355 -2.875 20.375 C-4.525 20.045 -6.175 19.715 -7.875 19.375 C-8.22812069 12.87496356 -8.00263464 8.14909472 -4.875 2.375 C-2.875 0.375 -2.875 0.375 0 0 Z " fill="#42CAA8" transform="translate(326.875,182.625)"/>
<path d="M0 0 C9.10807589 -0.5400045 16.54707616 -0.92661699 24 5 C26.8125 7.5 26.8125 7.5 29 10 C29.70125 10.763125 30.4025 11.52625 31.125 12.3125 C35.664171 18.8186451 36.43197828 24.80206856 36.1875 32.5 C36.16719727 33.73363281 36.16719727 33.73363281 36.14648438 34.9921875 C36.11155016 36.99508221 36.05776057 38.99763356 36 41 C35.67 41 35.34 41 35 41 C34.67 37.7 34.34 34.4 34 31 C32.68 31 31.36 31 30 31 C29.84144531 30.14277344 29.68289062 29.28554687 29.51953125 28.40234375 C27.98329406 20.87393275 26.6760629 14.61280166 20.40234375 9.765625 C16.18776247 7.11591103 11.84042736 6.01903734 7 5 C7.33 4.01 7.66 3.02 8 2 C5.36 1.67 2.72 1.34 0 1 C0 0.67 0 0.34 0 0 Z " fill="#66DDB1" transform="translate(68,160)"/>
<path d="M0 0 C3.57639938 3.07736691 5.98425393 6.73260987 8.18359375 10.87890625 C8.56386719 11.58273438 8.94414062 12.2865625 9.3359375 13.01171875 C10.62849569 17.38378193 10.39184219 21.66077002 10.30859375 26.19140625 C10.29957031 27.12275391 10.29054688 28.05410156 10.28125 29.01367188 C10.25777638 31.30234985 10.22494104 33.59049297 10.18359375 35.87890625 C9.85359375 35.87890625 9.52359375 35.87890625 9.18359375 35.87890625 C8.85359375 32.24890625 8.52359375 28.61890625 8.18359375 24.87890625 C6.86359375 24.87890625 5.54359375 24.87890625 4.18359375 24.87890625 C4.1578125 24.32203125 4.13203125 23.76515625 4.10546875 23.19140625 C3.71486248 17.93597648 2.6270771 14.09429506 0.0234375 9.5078125 C-0.81640625 7.87890625 -0.81640625 7.87890625 -0.81640625 5.87890625 C-1.39390625 5.61078125 -1.97140625 5.34265625 -2.56640625 5.06640625 C-4.81640625 3.87890625 -4.81640625 3.87890625 -6.50390625 2.37890625 C-9.98279864 0.1223274 -13.77683322 -0.38741061 -17.81640625 -1.12109375 C-17.81640625 -2.11109375 -17.81640625 -3.10109375 -17.81640625 -4.12109375 C-10.63985515 -6.02076904 -5.89612237 -4.12629137 0 0 Z " fill="#62DBAF" transform="translate(285.81640625,159.12109375)"/>
<path d="M0 0 C0.75539062 0.0103125 1.51078125 0.020625 2.2890625 0.03125 C6.48936272 0.22217274 8.21875756 0.55675041 11.63671875 3.234375 C13.625 5.875 13.625 5.875 14.0625 9 C13.625 11.875 13.625 11.875 11.625 14.875 C10.635 14.875 9.645 14.875 8.625 14.875 C8.625 12.565 8.625 10.255 8.625 7.875 C5.61721479 6.87240493 3.08679353 6.57185358 -0.0625 6.3125 C-1.05636719 6.22871094 -2.05023438 6.14492187 -3.07421875 6.05859375 C-4.21310547 5.96771484 -4.21310547 5.96771484 -5.375 5.875 C-5.375 8.845 -5.375 11.815 -5.375 14.875 C-5.705 14.875 -6.035 14.875 -6.375 14.875 C-6.375 11.575 -6.375 8.275 -6.375 4.875 C-8.355 5.865 -8.355 5.865 -10.375 6.875 C-10.705 4.895 -11.035 2.915 -11.375 0.875 C-7.52201512 -0.40932829 -3.9972816 -0.17555629 0 0 Z " fill="#3DD0DE" transform="translate(192.375,174.125)"/>
<path d="M0 0 C1.77049689 -0.05410687 3.54146849 -0.09284119 5.3125 -0.125 C6.29863281 -0.14820313 7.28476563 -0.17140625 8.30078125 -0.1953125 C11 0 11 0 14 2 C14.3125 5 14.3125 5 14 8 C12 10 12 10 9.1796875 10.1953125 C8.08914062 10.17210937 6.99859375 10.14890625 5.875 10.125 C4.77929688 10.10695312 3.68359375 10.08890625 2.5546875 10.0703125 C1.71164063 10.04710937 0.86859375 10.02390625 0 10 C0 6.7 0 3.4 0 0 Z " fill="#FAFCFE" transform="translate(187,194)"/>
<path d="M0 0 C5.48780488 0.48780488 5.48780488 0.48780488 7.8125 2.8125 C9.82064705 6.51171825 10.15599883 9.88544445 10.1875 14.0625 C10.20167969 14.91972656 10.21585938 15.77695313 10.23046875 16.66015625 C10 19 10 19 8 22 C6.125 21.875 6.125 21.875 4 21 C2.75 17.9375 2.75 17.9375 2 15 C1.34 15 0.68 15 0 15 C0 13.02 0 11.04 0 9 C1.32 8.67 2.64 8.34 4 8 C4.33 9.32 4.66 10.64 5 12 C5.85974801 9.70705512 5.85974801 9.70705512 6 7 C4.12491838 4.7914234 4.12491838 4.7914234 2 3 C2 2.34 2 1.68 2 1 C1.34 0.67 0.68 0.34 0 0 Z " fill="#67D2BB" transform="translate(134,183)"/>
<path d="M0 0 C1.79133978 -0.05391993 3.58313899 -0.09275571 5.375 -0.125 C6.37273437 -0.14820313 7.37046875 -0.17140625 8.3984375 -0.1953125 C11 0 11 0 13 2 C13.25 4.5 13.25 4.5 13 7 C11 9 11 9 8.3984375 9.1953125 C7.40070313 9.17210937 6.40296875 9.14890625 5.375 9.125 C3.87066406 9.09792969 3.87066406 9.09792969 2.3359375 9.0703125 C1.56507813 9.04710937 0.79421875 9.02390625 0 9 C0 6.03 0 3.06 0 0 Z " fill="#FAFDFE" transform="translate(187,180)"/>
<path d="M0 0 C5.98065699 -0.49838808 10.0646874 0.51350076 15 4 C19.38433329 7.87435008 23.24326709 11.56192777 24 17.5625 C24 18.696875 24 19.83125 24 21 C23.34 21 22.68 21 22 21 C21.76925781 20.40832031 21.53851563 19.81664062 21.30078125 19.20703125 C18.41860713 12.22373981 14.96082103 7.39947073 8 4 C5.34639349 3.20787865 2.70843834 2.59677455 0 2 C0 1.34 0 0.68 0 0 Z " fill="#E2F7EF" transform="translate(75,163)"/>
<path d="M0 0 C5.96672553 -0.77826855 9.60610125 0.85357215 14.625 4.08984375 C19.45563813 7.97501159 22.40165866 12.56389597 23.875 18.5625 C23.91625 19.366875 23.9575 20.17125 24 21 C23.34 21 22.68 21 22 21 C21.16180842 19.37750059 20.3295884 17.75191503 19.5 16.125 C19.0359375 15.22007812 18.571875 14.31515625 18.09375 13.3828125 C17 11 17 11 17 9 C16.4225 8.731875 15.845 8.46375 15.25 8.1875 C13 7 13 7 11.3125 5.5 C7.83360761 3.24342115 4.03957303 2.73368314 0 2 C0 1.34 0 0.68 0 0 Z " fill="#E4F7F0" transform="translate(268,156)"/>
<path d="M0 0 C3.125 0.375 3.125 0.375 5.4375 2.1875 C8.31468259 5.91718114 8.23655221 9.0006448 8.1875 13.5625 C8.17847656 14.64917969 8.16945313 15.73585937 8.16015625 16.85546875 C8.14855469 17.68691406 8.13695312 18.51835937 8.125 19.375 C7.795 19.375 7.465 19.375 7.125 19.375 C7.125 16.405 7.125 13.435 7.125 10.375 C6.465 10.375 5.805 10.375 5.125 10.375 C4.135 8.065 3.145 5.755 2.125 3.375 C0.145 3.705 -1.835 4.035 -3.875 4.375 C-4.019375 5.179375 -4.16375 5.98375 -4.3125 6.8125 C-4.875 9.375 -4.875 9.375 -5.875 10.375 C-6.10692865 11.88969448 -6.28715238 13.41254562 -6.4375 14.9375 C-6.52128906 15.76378906 -6.60507812 16.59007812 -6.69140625 17.44140625 C-6.75199219 18.07949219 -6.81257813 18.71757812 -6.875 19.375 C-7.205 19.375 -7.535 19.375 -7.875 19.375 C-8.22812069 12.87496356 -8.00263464 8.14909472 -4.875 2.375 C-2.875 0.375 -2.875 0.375 0 0 Z " fill="#65D9B4" transform="translate(326.875,182.625)"/>
<path d="M0 0 C0.99 0.33 1.98 0.66 3 1 C3.96088383 3.88265149 4.11670941 5.67662271 4.09765625 8.66796875 C4.09282227 10.00698242 4.09282227 10.00698242 4.08789062 11.37304688 C4.07951172 12.30181641 4.07113281 13.23058594 4.0625 14.1875 C4.05798828 15.12787109 4.05347656 16.06824219 4.04882812 17.03710938 C4.03704626 19.35813712 4.02059558 21.67903644 4 24 C3.67 24 3.34 24 3 24 C2.67 20.37 2.34 16.74 2 13 C0.68 13 -0.64 13 -2 13 C-2 10.69 -2 8.38 -2 6 C-1.34 6 -0.68 6 0 6 C0 4.02 0 2.04 0 0 Z " fill="#77DCBE" transform="translate(292,171)"/>
<path d="M0 0 C1.65 0 3.3 0 5 0 C5.48979592 7.34693878 5.48979592 7.34693878 3.125 10.5 C1 12 1 12 -1 12 C-0.67 8.04 -0.34 4.08 0 0 Z " fill="#54A4E3" transform="translate(202,196)"/>
<path d="M0 0 C0.66 0.33 1.32 0.66 2 1 C-5.92 8.92 -13.84 16.84 -22 25 C-22 21.55976047 -21.6780229 21.27885862 -19.4375 18.890625 C-18.89125977 18.30369873 -18.34501953 17.71677246 -17.78222656 17.11206055 C-17.1940918 16.49758057 -16.60595703 15.88310059 -16 15.25 C-15.40928711 14.62327393 -14.81857422 13.99654785 -14.20996094 13.35083008 C-10.02851393 8.95871213 -5.69768498 4.8399616 -1 1 C-0.67 0.67 -0.34 0.34 0 0 Z " fill="#DEDEDE" transform="translate(68,45)"/>
<path d="M0 0 C0.66 0.33 1.32 0.66 2 1 C5.10951312 1.51897905 8.2262813 1.96067476 11.34765625 2.40234375 C12.22292969 2.59957031 13.09820312 2.79679688 14 3 C14.33 3.66 14.66 4.32 15 5 C9.06 5 3.12 5 -3 5 C-2.67 3.68 -2.34 2.36 -2 1 C-1.34 0.67 -0.68 0.34 0 0 Z " fill="#4C97E4" transform="translate(185,203)"/>
<path d="M0 0 C3 1 3 1 4 3 C4.08308638 4.37548156 4.10736016 5.75485796 4.09765625 7.1328125 C4.09282227 8.34130859 4.09282227 8.34130859 4.08789062 9.57421875 C4.07951172 10.41597656 4.07113281 11.25773438 4.0625 12.125 C4.05798828 12.97449219 4.05347656 13.82398438 4.04882812 14.69921875 C4.03702874 16.79950909 4.01909306 18.8997633 4 21 C3.67 21 3.34 21 3 21 C2.92652344 19.98679688 2.92652344 19.98679688 2.8515625 18.953125 C2.77679688 18.06109375 2.70203125 17.1690625 2.625 16.25 C2.55539063 15.36828125 2.48578125 14.4865625 2.4140625 13.578125 C1.99769453 10.98564521 1.17696403 9.31596149 0 7 C-0.0777346 4.66796188 -0.08967728 2.33160941 0 0 Z " fill="#68D7B8" transform="translate(100,180)"/>
<path d="M0 0 C2.61838609 3.92757913 2.36792655 7.43771074 2 12 C1.01 12.66 0.02 13.32 -1 14 C-2.65653686 12.34346314 -2.17106165 10.39349204 -2.1875 8.125 C-2.20167969 7.24070313 -2.21585938 6.35640625 -2.23046875 5.4453125 C-2 3 -2 3 0 0 Z " fill="#42A7E1" transform="translate(184,191)"/>
<path d="M0 0 C0.33 0 0.66 0 1 0 C1 5.28 1 10.56 1 16 C2.32 16.33 3.64 16.66 5 17 C5.33 16.34 5.66 15.68 6 15 C6 16.65 6 18.3 6 20 C4.125 20.625 4.125 20.625 2 21 C0 19 0 19 -0.22705078 17.02880859 C-0.21657715 16.24328613 -0.20610352 15.45776367 -0.1953125 14.6484375 C-0.18886719 13.79765625 -0.18242188 12.946875 -0.17578125 12.0703125 C-0.15902344 11.18085938 -0.14226562 10.29140625 -0.125 9.375 C-0.11597656 8.4778125 -0.10695313 7.580625 -0.09765625 6.65625 C-0.0740497 4.43723414 -0.0411231 2.21874923 0 0 Z " fill="#5ECEB6" transform="translate(109,184)"/>
<path d="M0 0 C0.33 0.66 0.66 1.32 1 2 C1.66 2 2.32 2 3 2 C3 5.3 3 8.6 3 12 C1.68 12 0.36 12 -1 12 C-1.02687279 10.18757948 -1.04633715 8.37504767 -1.0625 6.5625 C-1.07410156 5.55316406 -1.08570313 4.54382813 -1.09765625 3.50390625 C-1 1 -1 1 0 0 Z " fill="#40C6AB" transform="translate(331,191)"/>
<path d="M0 0 C0.66 0 1.32 0 2 0 C2.33 1.65 2.66 3.3 3 5 C2.34 5 1.68 5 1 5 C1.33 8.63 1.66 12.26 2 16 C1.01 16 0.02 16 -1 16 C-1.33 13.69 -1.66 11.38 -2 9 C-1.34 9 -0.68 9 0 9 C-0.185625 7.88625 -0.37125 6.7725 -0.5625 5.625 C-1 2 -1 2 0 0 Z " fill="#92E3C9" transform="translate(99,175)"/>
<path d="M0 0 C1.98 0.99 1.98 0.99 4 2 C4 3.98 4 5.96 4 8 C4.66 8.33 5.32 8.66 6 9 C5.34 9 4.68 9 4 9 C3.67 9.99 3.34 10.98 3 12 C3 11.34 3 10.68 3 10 C2.01 10 1.02 10 0 10 C0 9.34 0 8.68 0 8 C0.66 8 1.32 8 2 8 C2 7.34 2 6.68 2 6 C1.34 6 0.68 6 0 6 C0 4.02 0 2.04 0 0 Z " fill="#84D9C7" transform="translate(326,190)"/>
<path d="M0 0 C1.32 0 2.64 0 4 0 C7.81636773 5.72455159 7.29282789 11.29749495 7 18 C6.67 18 6.34 18 6 18 C6 15.03 6 12.06 6 9 C5.34 9 4.68 9 4 9 C3.525625 7.88625 3.05125 6.7725 2.5625 5.625 C1.74693537 3.73289006 0.92143645 1.84287291 0 0 Z " fill="#82DAC5" transform="translate(328,184)"/>
<path d="M0 0 C2.41696872 -0.05411124 4.83271787 -0.09372278 7.25 -0.125 C7.93191406 -0.14175781 8.61382812 -0.15851563 9.31640625 -0.17578125 C13.0608235 -0.21213482 15.82352727 -0.07944349 19 2 C18.34 2.66 17.68 3.32 17 4 C14.8359375 3.9765625 14.8359375 3.9765625 12.375 3.625 C11.55773437 3.51414063 10.74046875 3.40328125 9.8984375 3.2890625 C9.27195312 3.19367188 8.64546875 3.09828125 8 3 C8 2.67 8 2.34 8 2 C5.36 1.67 2.72 1.34 0 1 C0 0.67 0 0.34 0 0 Z " fill="#7BE3B8" transform="translate(68,160)"/>
<path d="M0 0 C-0.99 1.485 -0.99 1.485 -2 3 C-3.010625 2.360625 -4.02125 1.72125 -5.0625 1.0625 C-8.75219924 -1.06848956 -11.77860255 -1.65539613 -16 -2 C-16 -2.33 -16 -2.66 -16 -3 C-9.76343613 -4.65085514 -5.30274908 -3.58715379 0 0 Z " fill="#70E0B3" transform="translate(284,158)"/>
<path d="M0 0 C0.66 0.33 1.32 0.66 2 1 C-2.29 5.29 -6.58 9.58 -11 14 C-11 10.09572976 -9.78171026 9.2747714 -7.1875 6.4375 C-6.47980469 5.65246094 -5.77210937 4.86742188 -5.04296875 4.05859375 C-3 2 -3 2 0 0 Z " fill="#DAF6EB" transform="translate(59,111)"/>
<path d="M0 0 C2.625 0.375 2.625 0.375 5 1 C5 1.99 5 2.98 5 4 C4.01 4 3.02 4 2 4 C2 3.34 2 2.68 2 2 C1.01 2.495 1.01 2.495 0 3 C-0.31241371 5.54941373 -0.51303421 8.00361513 -0.625 10.5625 C-0.66367187 11.27341797 -0.70234375 11.98433594 -0.7421875 12.71679688 C-0.83671783 14.47742425 -0.91945817 16.23867728 -1 18 C-1.33 18 -1.66 18 -2 18 C-2.05382106 15.37472811 -2.09358313 12.75055287 -2.125 10.125 C-2.14175781 9.37863281 -2.15851563 8.63226563 -2.17578125 7.86328125 C-2.1933959 5.90805539 -2.10320189 3.95257979 -2 2 C-1.34 1.34 -0.68 0.68 0 0 Z " fill="#9BE4CB" transform="translate(302,182)"/>
<path d="M0 0 C0.33 0 0.66 0 1 0 C1 2.31 1 4.62 1 7 C1.66 7.33 2.32 7.66 3 8 C2.34 8 1.68 8 1 8 C1 8.66 1 9.32 1 10 C1.99 10.33 2.98 10.66 4 11 C3.01 11.33 2.02 11.66 1 12 C0.67 12.66 0.34 13.32 0 14 C-0.99 13.01 -1.98 12.02 -3 11 C-2.01 10.67 -1.02 10.34 0 10 C0 9.01 0 8.02 0 7 C-0.66 6.67 -1.32 6.34 -2 6 C-1.34 4.02 -0.68 2.04 0 0 Z " fill="#5DC2E2" transform="translate(200,182)"/>
<path d="M0 0 C1.24523437 0.02707031 2.49046875 0.05414063 3.7734375 0.08203125 C4.71445312 0.11683594 5.65546875 0.15164062 6.625 0.1875 C6.625 0.5175 6.625 0.8475 6.625 1.1875 C5.74457031 1.22488281 4.86414063 1.26226562 3.95703125 1.30078125 C2.79558594 1.36652344 1.63414062 1.43226563 0.4375 1.5 C-0.71105469 1.55800781 -1.85960937 1.61601562 -3.04296875 1.67578125 C-6.52180104 2.21004506 -8.52031638 3.1822326 -11.375 5.1875 C-12.035 4.5275 -12.695 3.8675 -13.375 3.1875 C-8.70450485 0.4498713 -5.38700281 -0.15246234 0 0 Z " fill="#74E2B5" transform="translate(266.375,152.8125)"/>
<path d="M0 0 C1 3 1 3 0.00390625 5.04296875 C-0.47175781 5.75066406 -0.94742188 6.45835937 -1.4375 7.1875 C-1.91058594 7.90292969 -2.38367188 8.61835938 -2.87109375 9.35546875 C-3.24363281 9.89816406 -3.61617188 10.44085938 -4 11 C-4.66 10.67 -5.32 10.34 -6 10 C-2.62068966 1.31034483 -2.62068966 1.31034483 0 0 Z " fill="#8BE2C8" transform="translate(124,184)"/>
<path d="M0 0 C5.48780488 0.48780488 5.48780488 0.48780488 7.875 2.875 C9 5 9 5 9 8 C5.63983107 6.87994369 4.30935087 5.62788203 2 3 C2 2.34 2 1.68 2 1 C1.34 0.67 0.68 0.34 0 0 Z " fill="#9FE6CF" transform="translate(134,183)"/>
<path d="M0 0 C1.9375 0.75 1.9375 0.75 4 2 C4.75 4.125 4.75 4.125 5 6 C3.68 6 2.36 6 1 6 C0.34 5.34 -0.32 4.68 -1 4 C-0.625 1.875 -0.625 1.875 0 0 Z " fill="#47D5A5" transform="translate(327,185)"/>
<path d="M0 0 C1.5 1.25 1.5 1.25 3 3 C3 4.32 3 5.64 3 7 C1.35 7 -0.3 7 -2 7 C-2 5.68 -2 4.36 -2 3 C-1.34 2.67 -0.68 2.34 0 2 C0 1.34 0 0.68 0 0 Z " fill="#58C8B7" transform="translate(314,196)"/>
<path d="M0 0 C-0.33 0.61875 -0.66 1.2375 -1 1.875 C-2.14193235 3.91018344 -2.14193235 3.91018344 -2 6 C-4.475 5.01 -4.475 5.01 -7 4 C-6.625 2.0625 -6.625 2.0625 -6 0 C-3.50907189 -1.24546405 -2.58919267 -0.7767578 0 0 Z " fill="#52C6B6" transform="translate(232,254)"/>
<path d="M0 0 C0.33 0 0.66 0 1 0 C1 3.96 1 7.92 1 12 C-1.32101984 8.51847024 -1.69903201 6.13830989 -2 2 C-1.34 1.34 -0.68 0.68 0 0 Z " fill="#43B2BA" transform="translate(218,191)"/>
<path d="M0 0 C1.32 0 2.64 0 4 0 C4 0.66 4 1.32 4 2 C0.53846154 5 0.53846154 5 -2 5 C-2.33 6.65 -2.66 8.3 -3 10 C-3.75 8.375 -3.75 8.375 -4 6 C-2.3125 2.75 -2.3125 2.75 0 0 Z " fill="#69DCB3" transform="translate(132,184)"/>
<path d="M0 0 C-1.5830577 4.2742558 -4.50568404 6.26531794 -8 9 C-8 6 -8 6 -6.7578125 4.39453125 C-5.94957031 3.61142578 -5.94957031 3.61142578 -5.125 2.8125 C-4.59132813 2.28269531 -4.05765625 1.75289062 -3.5078125 1.20703125 C-2 0 -2 0 0 0 Z " fill="#5FDCAB" transform="translate(62,163)"/>
<path d="M0 0 C0.66 0.33 1.32 0.66 2 1 C-0.98232523 4.32643967 -3.86370087 6.29152862 -8 8 C-8.66 7.67 -9.32 7.34 -10 7 C-6.7 4.69 -3.4 2.38 0 0 Z " fill="#63C7BC" transform="translate(177,239)"/>
<path d="M0 0 C1 4 1 4 0.22265625 5.921875 C-0.8515625 7.61458333 -1.92578125 9.30729167 -3 11 C-3.66 10.01 -4.32 9.02 -5 8 C-3.35 5.36 -1.7 2.72 0 0 Z " fill="#91E3C8" transform="translate(315,183)"/>
<path d="M0 0 C1.18771723 3.42943519 0.80226223 5.37784675 -0.4375 8.75 C-0.86869141 9.94882812 -0.86869141 9.94882812 -1.30859375 11.171875 C-1.53675781 11.77515625 -1.76492188 12.3784375 -2 13 C-2.66 13 -3.32 13 -4 13 C-3.52343588 11.20763933 -3.04366502 9.41613103 -2.5625 7.625 C-2.29566406 6.62726563 -2.02882813 5.62953125 -1.75390625 4.6015625 C-1 2 -1 2 0 0 Z " fill="#75E5B3" transform="translate(348,248)"/>
<path d="M0 0 C0.99 0.66 1.98 1.32 3 2 C3 3.32 3 4.64 3 6 C0.625 6.1875 0.625 6.1875 -2 6 C-2.66 5.01 -3.32 4.02 -4 3 C-1.525 3.495 -1.525 3.495 1 4 C0.67 2.68 0.34 1.36 0 0 Z " fill="#5EC8BA" transform="translate(123,198)"/>
<path d="M0 0 C2.475 0.495 2.475 0.495 5 1 C5 1.99 5 2.98 5 4 C5.99 3.67 6.98 3.34 8 3 C8 3.66 8 4.32 8 5 C6.35 5 4.7 5 3 5 C2.87625 4.360625 2.7525 3.72125 2.625 3.0625 C2.315625 2.0415625 2.315625 2.0415625 2 1 C1.34 0.67 0.68 0.34 0 0 Z " fill="#77E2BB" transform="translate(110,183)"/>
<path d="M0 0 C1.32 0 2.64 0 4 0 C4 1.98 4 3.96 4 6 C3.34 6 2.68 6 2 6 C1.34 4.02 0.68 2.04 0 0 Z " fill="#40A6E1" transform="translate(202,196)"/>
<path d="M0 0 C1.32 0 2.64 0 4 0 C6 3 6 3 6 6 C2.26360784 4.75453595 1.81243487 3.36595047 0 0 Z " fill="#96E5CC" transform="translate(328,184)"/>
<path d="M0 0 C6.64615385 1.47692308 6.64615385 1.47692308 8.4375 4.125 C8.7159375 5.053125 8.7159375 5.053125 9 6 C5.06326356 4.68775452 2.77280706 3.08089673 0 0 Z " fill="#65C9BB" transform="translate(162,140)"/>
<path d="M0 0 C0.66 0.33 1.32 0.66 2 1 C-1.5 5.875 -1.5 5.875 -6 7 C-4.02 4.69 -2.04 2.38 0 0 Z " fill="#6BE1AE" transform="translate(51,108)"/>
<path d="M0 0 C0.66 0.33 1.32 0.66 2 1 C-1.625 5.875 -1.625 5.875 -5 7 C-3.70700306 4.11562221 -2.34058637 2.12780579 0 0 Z " fill="#6ADFB3" transform="translate(251,157)"/>
</svg>
